<svg xmlns="http://www.w3.org/2000/svg" fill="none" viewBox="0 0 16 16">
  <path fill="black" d="M6.71 2c-.268 0-.484.2-.484.445v.444H3.484c-.267 0-.484.2-.484.445s.217.444.484.444h9.032c.267 0 .484-.199.484-.444 0-.246-.217-.445-.484-.445H9.774v-.444c0-.246-.216-.445-.484-.445H6.71Zm0 4.98c.267 0 .484.198.484.444v4.15c0 .245-.217.444-.484.444-.268 0-.484-.2-.484-.445v-4.15c0-.245.216-.444.484-.444Zm3.064.444c0-.246-.216-.445-.484-.445-.267 0-.484.2-.484.445v4.15c0 .245.217.444.484.444.268 0 .484-.2.484-.445v-4.15Z"/>
  <path fill="black" fill-rule="evenodd" d="M4.123 5.36c.028-.226.235-.396.481-.396h6.792c.246 0 .453.17.48.395l.13 1.068c.234 1.936.234 3.89 0 5.825l-.013.105c-.093.768-.741 1.381-1.574 1.488a18.973 18.973 0 0 1-4.838 0c-.833-.107-1.481-.72-1.574-1.488l-.013-.105a24.245 24.245 0 0 1 0-5.825l.13-1.068Zm.914.493-.08.672a23.428 23.428 0 0 0 0 5.629l.012.105c.044.364.351.655.747.706 1.515.195 3.053.195 4.568 0 .396-.051.703-.342.747-.706l.013-.105c.226-1.87.226-3.758 0-5.629l-.082-.672H5.038Z" clip-rule="evenodd"/>
</svg>
