<svg xmlns="http://www.w3.org/2000/svg" fill="none" viewBox="0 0 24 24">
  <path fill="#353535" d="M14.498 4.047a3.523 3.523 0 0 0-.892.362c-.135.079-1.112 1.036-3.931 3.856-3.494 3.49-3.758 3.764-3.862 3.969-.063.12-.13.27-.148.33-.02.06-.177.791-.35 1.623C5.088 15.277 5 15.759 5 15.919c.003.876.58 1.531 1.458 1.654.208.032.284.02 1.815-.283.876-.177 1.666-.34 1.751-.369.445-.139.29.003 4.168-3.865 1.997-1.994 3.701-3.71 3.786-3.818.791-.983.823-2.45.08-3.497-.215-.296-1.132-1.206-1.346-1.332a3.341 3.341 0 0 0-.913-.362c-.31-.063-1-.063-1.301 0Zm1.159 1.707c.154.076.296.198.658.564.388.39.479.504.567.687.095.198.104.248.104.504 0 .255-.01.305-.1.497-.098.202-.316.429-3.699 3.834-2.895 2.914-3.616 3.626-3.695 3.638-.532.098-2.854.476-2.854.463 0-.006.13-.667.284-1.468l.286-1.452 3.566-3.569c1.963-1.962 3.613-3.597 3.67-3.635a1.35 1.35 0 0 1 1.213-.063ZM5.59 18.585a.696.696 0 0 0-.511.419c-.066.154-.07.504-.006.652a.824.824 0 0 0 .384.403l.142.066H17.9l.16-.076a.767.767 0 0 0 .183-1.279c-.255-.223.322-.204-6.439-.21-3.506 0-6.145.009-6.215.025Z"/>
</svg>
